<?xml version="1.0" encoding="UTF-8"?>
<svg width="432px" height="67px" viewBox="0 0 432 67" version="1.1" xmlns="http://www.w3.org/2000/svg" xmlns:xlink="http://www.w3.org/1999/xlink">
  <!-- squares -->
  <g fill="#FCC200" id="logo-squares">
    <polygon points="44.8328629 22.3333333 67.1609528 22.3333333 67.1609528 0 44.8328629 0"></polygon>
    <polygon points="44.8328629 67 67.1609528 67 67.1609528 44.6666667 44.8328629 44.6666667"></polygon>
    <polygon points="22.504773 44.6666667 44.8328629 44.6666667 44.8328629 22.3333333 22.504773 22.3333333"></polygon>
    <polygon points="0.159694382 22.3333333 22.4877843 22.3333333 22.4877843 0 0.159694382 0"></polygon>
    <polygon points="0.159694382 67 22.4877843 67 22.4877843 44.6666667 0.159694382 44.6666667"></polygon>
  </g>
  <!-- text -->
  <g fill="#FFFFFF" id="logo-text">
    <polygon points="129.724212 0.000145652174 129.724212 21.1847688 110.375466 21.1847688 110.375466 0.000145652174 100.701578 0.000145652174 100.701578 51.312921 110.375466 51.312921 110.375466 29.9816746 129.724212 29.9816746 129.724212 51.312921 139.397614 51.312921 139.397614 0.000145652174"></polygon>
    <path d="M161.746819,44.7159942 C168.195754,44.7159942 171.787178,40.9033058 171.787178,35.9195739 L171.787178,35.3330812 L160.647403,36.6522043 C157.202567,37.0920739 155.517282,38.3378855 155.517282,40.4644072 C155.517282,42.9570014 157.642333,44.7159942 161.746819,44.7159942 M164.678109,13.9280377 C174.57188,13.9280377 181.020814,19.5720594 181.020814,28.0752333 L181.020814,51.3130667 L171.933282,51.3130667 L171.933282,46.1817406 L170.907646,46.1817406 C169.734936,48.6015087 167.169632,52.3399145 159.474208,52.3399145 C151.266693,52.3399145 145.842909,47.9407333 145.842909,40.9775884 C145.842909,35.186458 150.899736,31.1538348 157.862217,30.4212043 L171.787178,28.8826319 L171.787178,28.0024072 C171.787178,24.5572478 169.148095,21.8452043 164.164563,21.8452043 C159.32859,21.8452043 156.323035,24.337313 154.051394,28.1490304 L146.576338,23.3109507 C150.899736,17.8858928 155.810459,13.9280377 164.678109,13.9280377"></path>
    <path d="M193.476539,14.9544971 L193.476539,3.66451159 L202.710661,3.66451159 L202.710661,14.9544971 L212.678211,14.9544971 L212.678211,22.8711783 L202.710661,22.8711783 L202.710661,41.1966493 C202.710661,42.6633667 203.443604,43.3959971 204.762903,43.3959971 L210.625483,43.3959971 L210.625483,51.3131638 L200.658903,51.3131638 C196.554418,51.3131638 193.476539,48.3807 193.476539,44.2762217 L193.476539,22.8711783 L184.242903,22.8711783 L184.242903,14.9544971 L193.476539,14.9544971 Z" ></path>
    <path d="M235.1758,13.9279891 C245.28994,13.9279891 251.592286,19.5720109 253.49794,27.8557355 L244.409922,30.2017065 C243.750758,25.8034964 240.892277,22.1374312 235.322389,22.1374312 C229.752502,22.1374312 225.502398,26.5366123 225.502398,33.1341703 C225.502398,39.7307572 229.38603,44.1289674 235.322389,44.1289674 C240.892277,44.1289674 243.45758,40.9037428 244.409922,36.1389746 L253.49794,38.4121196 C251.738875,46.6943877 245.363234,52.3398659 235.1758,52.3398659 C224.62238,52.3398659 216.267791,44.4226993 216.267791,33.1341703 C216.267791,21.8451558 224.62238,13.9279891 235.1758,13.9279891"></path>
    <path d="M268.445625,0 L268.445625,20.8185507 L269.325158,20.8185507 C270.791045,17.4462174 274.161616,14.3681014 280.831405,14.3681014 C288.892331,14.3681014 294.975279,20.1587464 294.975279,29.6144855 L294.975279,51.3127754 L285.741643,51.3127754 L285.741643,30.4951957 C285.741643,25.4371812 282.809868,22.4304348 277.533158,22.4304348 C271.596798,22.4304348 268.445625,26.0965 268.445625,32.5469493 L268.445625,51.3127754 L259.211504,51.3127754 L259.211504,0 L268.445625,0 Z"></path>
    <path d="M302.740261,51.3127754 L311.974867,51.3127754 L311.974867,14.9541087 L302.740261,14.9541087 L302.740261,51.3127754 Z M307.357807,0.00291304348 C310.602175,0.00291304348 313.133016,2.27460145 313.133016,5.58478986 C313.133016,8.89497826 310.602175,11.1666667 307.357807,11.1666667 C304.112953,11.1666667 301.582112,8.89497826 301.582112,5.58478986 C301.582112,2.27460145 304.112953,0.00291304348 307.357807,0.00291304348 L307.357807,0.00291304348 Z"></path>
    <path d="M329.269089,14.9544971 L329.269089,20.8184536 L330.294725,20.8184536 C331.761098,17.4461203 335.131669,14.3680043 341.800973,14.3680043 C349.862384,14.3680043 355.945332,20.1591348 355.945332,29.6143884 L355.945332,51.3131638 L346.711696,51.3131638 L346.711696,30.4950986 C346.711696,25.4370841 343.779921,22.4303377 338.502725,22.4303377 C332.566851,22.4303377 329.415678,26.0964029 329.415678,32.5468522 L329.415678,51.3131638 L320.180586,51.3131638 L320.180586,14.9544971 L329.269089,14.9544971 Z"></path>
    <path d="M390.67988,32.5469978 C390.67988,25.9499254 386.429291,22.1377225 380.712814,22.1377225 C375.143412,22.1377225 370.745264,25.8033022 370.745264,32.5469978 C370.745264,39.291179 375.143412,42.9567587 380.712814,42.9567587 C386.429291,42.9567587 390.67988,39.1445558 390.67988,32.5469978 L390.67988,32.5469978 Z M399.914001,14.9546428 L399.914001,50.0670123 C399.914001,60.0364181 392.659313,67.0000486 381.224904,67.0000486 C371.257839,67.0000486 365.614657,62.4552152 361.950909,56.7378819 L369.718657,51.8998022 C371.624796,55.6386935 375.143412,59.0838529 380.638549,59.0838529 C386.355511,59.0838529 390.67988,56.1513891 390.67988,49.7009399 L390.67988,45.0094833 L389.800347,45.0094833 C387.895178,48.0875993 384.66974,51.1666862 378.220805,51.1666862 C369.133273,51.1666862 361.511142,43.3961428 361.511142,32.5469978 C361.511142,21.6983384 369.133273,13.9277949 378.220805,13.9277949 C384.66974,13.9277949 387.895178,17.0068819 389.800347,20.0849978 L390.826954,20.0849978 L390.826954,14.9546428 L399.914001,14.9546428 Z"></path>
    <path transform="translate(407.730337, 0.000000)" d="M20.2679353,0.0142253623 L17.7739847,8.99853696 L17.5740027,8.99853696 L15.0800521,0.0142253623 L11.3391263,0.0142253623 L11.3391263,10.8541457 L13.4340836,10.8541457 L13.4340836,1.86983406 L13.6335802,1.86983406 L16.1280162,10.8541457 L19.220942,10.8541457 L21.7144072,1.86983406 L21.9143892,1.86983406 L21.9143892,10.8541457 L24.0093465,10.8541457 L24.0093465,0.0142253623 L20.2679353,0.0142253623 Z M0.364870112,0.0142253623 L0.364870112,1.86983406 L4.05628584,1.86983406 L4.05628584,10.8541457 L6.15124315,10.8541457 L6.15124315,1.86983406 L9.84217348,1.86983406 L9.84217348,0.0142253623 L0.364870112,0.0142253623 Z"></path>
  </g>
</svg>
