<!DOCTYPE svg PUBLIC "-//W3C//DTD SVG 1.0//EN" "http://www.w3.org/TR/2001/REC-SVG-20010904/DTD/svg10.dtd">
<svg xmlns:xlink="http://www.w3.org/1999/xlink" xmlns="http://www.w3.org/2000/svg" viewBox="0 0 210 250" width="210" height="250">
  <g transform="translate(0,58)">
    <g id="head">
      <path d="M118.581368,116.698654 L97.8044066,116.698654 L95.3169695,116.698654 L81.2350213,116.698654 C84.1341322,141.012115 71.9532277,156.908269 37.9911094,170.506346 C4.03092385,184.106346 0.473521453,199.940962 0.473521453,199.940962 L91.3683804,199.940962 L97.8044066,199.940962 L199.344801,199.940962 C199.344801,199.940962 194.787399,185.106346 160.827213,171.506346 C126.865095,157.908269 115.682257,141.012115 118.581368,116.698654 Z"  fill="#FCC21C"/>
      <path d="M65.7131813,154.507692 C73.4480093,164.315385 85.4599923,170.623077 98.9601855,170.623077 C112.460379,170.623077 124.474295,164.315385 132.209123,154.507692 C119.820255,143.844231 115.751836,131.180769 117.632393,115.384615 L96.855431,115.384615 L94.3699266,115.384615 L80.2879784,115.384615 C82.1724005,131.180769 78.1020487,143.844231 65.7131813,154.507692"  fill="#e2b2aa"/>
      <path d="M51.3170869,72.1047775 C57.5772338,84.018239 54.9545048,97.6797775 45.4589501,102.620162 C35.9633954,107.560547 23.1899126,101.906701 16.9316984,89.993239 C10.6715515,78.0797775 13.2942806,64.418239 22.7898353,59.4797775 C32.28539,54.5393928 45.0588728,60.1913159 51.3170869,72.1047775"  fill="#e2b2aa"/>
      <path d="M46.229223,94.0730769 C46.1905682,93.5884615 46.1016622,93.1692308 46.0475454,92.7 C46.1190568,93.0403846 46.1635099,93.3211538 46.1886355,93.5461538 C46.1287205,91.1211538 45.775029,89.1384615 45.1546193,87.5807692 C40.2106687,67.4134615 21.2601469,65.3846154 21.2601469,65.3846154 C30.8600696,71.15 36.8534983,77.5096154 40.5643603,82.7807692 C33.7514496,80.0192308 23.2199459,85.8673077 23.2199459,85.8673077 C35.7170468,82.5711538 41.3993042,85.3 44.0085041,88.4673077 C45.7286432,91.8788462 46.229223,94.0730769 46.229223,94.0730769"  fill="#b08078"/>
      <path d="M148.356617,72.1047775 C142.098403,84.018239 144.721132,97.6797775 154.216687,102.620162 C163.712241,107.560547 176.485724,101.906701 182.743938,89.993239 C189.002152,78.0797775 186.381356,64.418239 176.885801,59.4797775 C167.390247,54.5393928 154.616764,60.1913159 148.356617,72.1047775"  fill="#e2b2aa"/>
      <path d="M152.686509,94.0730769 C152.725164,93.5884615 152.816003,93.1692308 152.868187,92.7 C152.796676,93.0403846 152.752223,93.3211538 152.727097,93.5461538 C152.787012,91.1211538 153.140704,89.1384615 153.761113,87.5807692 C158.706997,67.4134615 177.657518,65.3846154 177.657518,65.3846154 C168.055663,71.15 162.064167,77.5096154 158.351372,82.7807692 C165.164283,80.0192308 175.695787,85.8673077 175.695787,85.8673077 C163.200618,82.5711538 157.516428,85.3 154.907228,88.4673077 C153.187089,91.8788462 152.686509,94.0730769 152.686509,94.0730769"  fill="#b08078"/>
      <path d="M81.1035949,0 C59.1109393,0 41.2156939,21.4653846 40.9876305,43.35 L40.5875532,81.4057692 C40.5875532,105.028846 52.5531504,125.615385 70.2589872,136.403846 C78.6374179,141.509615 91.7201392,146.346154 98.5929648,146.346154 C108.51179,146.346154 117.84886,141.717308 126.012756,136.95 C144.219173,126.321154 156.600309,105.432692 156.600309,81.4057692 L156.490143,41.0326923 C156.436026,20.4788462 139.6753,0 119.018168,0 L81.1035949,0 Z"  fill="#ECBCB4"/>
      <path d="M65.3043706,93.7027245 C65.0821054,93.7027245 64.8559748,93.6546476 64.6414406,93.5527245 C63.8838063,93.1873399 63.5668368,92.2815707 63.9321248,91.5277245 L68.7388507,81.6258014 C69.1060714,80.8719553 70.0163923,80.5584938 70.7740266,80.9181091 C71.5335937,81.2834938 71.8505631,82.189263 71.4833424,82.9431091 L66.6785492,92.8450322 C66.4137637,93.3873399 65.8706636,93.7027245 65.3043706,93.7027245"  fill="#e2b2aa"/>
      <path d="M55.6386915,93.7027245 C55.4183591,93.7027245 55.1922285,93.6546476 54.979627,93.5527245 C54.2200599,93.1873399 53.9030905,92.2815707 54.2683784,91.5277245 L59.0751044,81.6258014 C59.4423251,80.8719553 60.3545787,80.5584938 61.1102803,80.9181091 C61.8698473,81.2834938 62.1868168,82.189263 61.8215288,82.9431091 L57.0128701,92.8450322 C56.7500174,93.3873399 56.2069173,93.7027245 55.6386915,93.7027245"  fill="#e2b2aa"/>
      <path d="M133.893887,93.7027245 C133.327594,93.7027245 132.784494,93.3873399 132.519709,92.8450322 L127.714916,82.9431091 C127.345762,82.189263 127.662732,81.2834938 128.424232,80.9181091 C129.183799,80.5584938 130.092187,80.8719553 130.459407,81.6258014 L135.266133,91.5277245 C135.631421,92.2815707 135.314452,93.1873399 134.556818,93.5527245 C134.342283,93.6546476 134.116153,93.7027245 133.893887,93.7027245"  fill="#e2b2aa"/>
      <path d="M143.558304,93.7027245 C142.992011,93.7027245 142.448911,93.3873399 142.184125,92.8450322 L137.377399,82.9431091 C137.010179,82.189263 137.327148,81.2834938 138.088648,80.9181091 C138.846282,80.5584938 139.756603,80.8719553 140.123824,81.6258014 L144.93055,91.5277245 C145.295838,92.2815707 144.978868,93.1873399 144.219301,93.5527245 C144.0067,93.6546476 143.780569,93.7027245 143.558304,93.7027245"  fill="#e2b2aa"/>
    </g>
    <g id="mouth" transform="translate(81,110)">
      <path d="M2.66445009,4.42825488 C1.90763062,3.93461039 1.22343524,3.43905994 0.627153239,2.96066315 C-0.093354183,2.3869682 -0.20993496,1.34250032 0.365324282,0.625858125 C0.940583524,-0.0888781077 1.97069891,-0.212765721 2.70840678,0.364741155 C3.27793254,0.814548491 16.6331205,11.2382617 26.154521,1.75800032 C26.8081378,1.10806684 27.8573648,1.11187876 28.5128928,1.75990628 C29.1626873,2.4079338 29.1626873,3.4619315 28.5109816,4.10995902 C20.1974344,12.3894635 8.94834506,8.52035806 2.66445009,4.42825488"  fill="#b08078"/>
    </g>
    <g id="hair" transform="translate(20,-53)">
      <path d="M149.997446,52.3500386 C149.819834,52.0582817 149.625571,51.7757577 149.442409,51.487694 C149.399856,51.4156781 149.362854,51.3344293 149.318451,51.26426 C149.022431,50.7841538 148.719011,50.3317461 148.413741,49.884878 C144.082602,43.4200637 138.66174,37.6975674 132.387972,32.9648285 C135.768147,30.604922 137.953143,24.8177961 134.848636,11.5982572 L127.26313,24.6276001 C125.483311,8.54404333 115.475994,0 115.475994,0 L115.475994,23.4790385 C107.122686,20.1810784 97.9830767,18.3492886 88.3938871,18.3492886 C40.5274942,19.6086441 22.5905478,34.2389564 16.2871773,48.1860408 C13.3843337,52.9464781 11.5841636,58.6320432 11.6896206,65.440318 C11.6896206,65.440318 -11.1335017,86.9620006 7.00140792,121.20465 L7.43063655,122.004212 C12.9514048,132.324648 15.6988381,143.843503 15.8190961,155.541474 C15.893101,162.600882 35.4170904,173.17358 29.229223,157.803922 C19.6029766,133.893888 22.2223791,98.9588335 28.229223,75.1316 C36.5496797,42.1270026 90.3604269,38.2456921 91.9579777,36.6582 C95.4990316,33.1394416 115.459452,60.2743928 124.26313,62 C127.260744,62.587383 134.518748,83.0178 131.848636,110.745098 C130.656463,123.124998 135.374864,140.184087 130.686509,152.407341 C123.310049,171.638897 147.250013,145.701144 149.512714,140.490146 C161.333152,113.268126 162.805851,74.521711 149.958594,52.423901 C149.971545,52.3980492 149.997446,52.3500386 149.997446,52.3500386 Z"  fill="#AA8866"/>
      <path d="M132.372981,32.9036545 C135.756523,30.5481274 137.943695,24.7717408 134.836096,11.5767339 L127.243035,24.5818979 C125.461444,8.52818785 115.44416,0 115.44416,0 L115.44416,23.4354676 C107.082534,20.1436276 97.9338214,18.3152372 88.3350816,18.3152372 C-3.57243549,20.7279016 14.7268406,72.241695 14.0768006,73.8489091 C18.6956038,82.989018 22.4310192,90.9587358 22.4254633,89.9063054 C22.4254633,89.9063054 22.2569344,75.8229072 43.5638034,74.6156535 C63.4594742,73.4894977 84.2681643,62.1855478 91.8871524,57.426572 L77.5010805,75.0008688 C77.5010805,75.0008688 100.867336,81.5034508 107.297362,58.7610021 L108.03074,75.8689856 C108.03074,75.8689856 123.81875,73.3217724 116.968328,58.2172772 C124.705842,60.2576281 132.012989,87.3388177 136.600309,89.9063054 C137.955948,90.6656772 137.804798,67.0071903 138.888198,68.0356599 C143.362548,64.4138986 150.007402,52.2639496 149.999994,52.2528908 C145.43675,44.7826627 139.441936,38.2211004 132.372981,32.9036545 Z"  fill="#AA8866"/>
      <path d="M149.827527,52.6055814 C149.840667,52.5795349 149.866948,52.5311628 149.866948,52.5311628 C149.686739,52.2372093 149.489635,51.9525581 149.303795,51.6623256 C149.26062,51.5897674 149.223077,51.507907 149.178024,51.4372093 C148.877677,50.9534884 148.56982,50.4976744 148.260086,50.0474419 C143.86562,43.5339535 138.365499,37.7683721 132,33 C132,33 156.590987,63.7572093 158.751615,101 C159.889183,82.9293023 157.154139,65.1190698 149.827527,52.6055814"  fill="#c8a684"/>
      <path d="M116,24.1359616 C107.607042,20.8321591 98.4221902,19 88.7874834,19 C32.3529733,20.4808874 17.3200051,40.3924449 14,56 C35.189663,17.4433118 116,24.1359616 116,24.1359616"  fill="#c8a684"/>
    </g>
    <g id="facial" transform="translate(40,90)">
      <path d="M58,61 C102.747573,61 119,20 119,0.5 C100.135208,21.5671115 84.0673986,41.9804514 70.0336993,39.9902257 C56,38 62,34 58,34 C54,34 61,35.75 45.7800715,39.9855671 C30.5601429,44.2211342 12.7367448,19.5722104 1,0.5 C-0.165048544,19 13.2524272,61 58,61 Z"  fill="#AA8866"/>
      <path d="M119,0.5 C98,23.3846154 86,38.9855671 72.0336993,38.9902257 C58.0673986,38.9948843 62,34 58,34 C54,34 60,36 45.7800715,39.9855671 C89,54 111.456311,16 119,0.5 Z"  fill="#a07e5c"/>
      <g id="Group" transform="translate(59.500000, 31.500000) scale(1, -1) translate(-59.500000, -31.500000) translate(29.000000, 1.000000)">
        <path d="M9.2400628,23.5590406 C12.4935865,22.3907791 53.9434964,7.46016304 45.0176216,51.295068 C52.41914,34.6805865 58.3413297,13.9035085 38.4659856,10.0168659 C38.6219565,10.0637247 27.7384395,7.57847519 9.2400628,23.5590406 Z"  fill="#a07e5c" transform="translate(30.606028, 30.598943) rotate(140.000000) translate(-30.606028, -30.598943) "/>
        <path d="M9.14503126,18.2216016 C12.398555,17.0533401 53.5502425,3.08784327 44.6243676,46.9227482 C52.025886,30.3082667 54.3704983,13.2903549 34.4951541,9.40371226 C34.651125,9.45057109 28.4859223,7.25400411 9.14503126,18.2216016 Z"  fill="#AA8866" transform="translate(29.574296, 28.088197) rotate(140.000000) translate(-29.574296, -28.088197) "/>
      </g>
    </g>
    <g id="eyes" transform="translate(55,40)">
      <path d="M76,28 C76,32.4165103 74.4317799,36 72.5,36 C70.5662549,36 69,32.4165103 69,28 C69,23.5834897 70.5662549,20 72.5,20 C74.4317799,20 76,23.5834897 76,28" id="Fill-33" fill="#25110D"/>
      <path d="M87.9922875,18.9978421 C88.4432398,18.7305971 69.0148726,6.29572485 57.018358,6.74246284 C56.8686969,6.94189945 57.2586033,-4.10888277 73.1719051,1.67876748 C88.5929009,8.11658104 87.8544418,19.1773351 87.9922875,18.9978421" id="right-brow" fill="#080603" style="transform: rotate(4deg);"/>
      <path d="M15,28 C15,32.4165103 16.5662549,36 18.4980348,36 C20.4337451,36 22,32.4165103 22,28 C22,23.5834897 20.4337451,20 18.4980348,20 C16.5662549,20 15,23.5834897 15,28" id="Fill-37" fill="#25110D"/>
      <path d="M0.00771254488,18.9978421 C-0.443239827,18.7305971 18.9851274,6.29572485 30.981642,6.74246284 C31.1313031,6.94189945 30.7413967,-4.10888277 14.8280949,1.67876748 C-0.5948701,8.11658104 0.145558248,19.1773351 0.00771254488,18.9978421" id="left-brow" fill="#080603" style=""/>
    </g>
    <g id="nose" transform="translate(90,70)">
      <path d="M17,12.1922593 C17,17.6077575 13.195549,22 8.5,22 C3.80637144,22 0,17.6077575 0,12.1922593 C0,6.77306691 3.80637144,0 8.5,0 C13.195549,0 17,6.77306691 17,12.1922593" fill="#b08078"/>
    </g>
  </g>
</svg>
